<?xml version="1.0" encoding="UTF-8"?>
<svg xmlns="http://www.w3.org/2000/svg" xmlns:xlink="http://www.w3.org/1999/xlink" viewBox="0 0 105.3 49.55">
  <defs>
    <style>
      .cls-1 {
        fill: url(#radial-gradient);
      }

      .cls-2 {
        isolation: isolate;
      }

      .cls-3 {
        fill: #474346;
      }

      .cls-3, .cls-4, .cls-5, .cls-6, .cls-7, .cls-8, .cls-9, .cls-10, .cls-11 {
        mix-blend-mode: overlay;
      }

      .cls-4 {
        fill: url(#linear-gradient);
      }

      .cls-5 {
        fill: url(#linear-gradient-8);
      }

      .cls-6 {
        fill: url(#linear-gradient-2);
      }

      .cls-7 {
        fill: url(#linear-gradient-3);
      }

      .cls-8 {
        fill: url(#linear-gradient-4);
      }

      .cls-9 {
        fill: url(#linear-gradient-6);
      }

      .cls-10 {
        fill: url(#linear-gradient-5);
      }

      .cls-11 {
        fill: url(#linear-gradient-7);
      }

      .cls-12 {
        fill: #a0263b;
      }

      .cls-13 {
        fill: #952c39;
      }
    </style>
    <radialGradient id="radial-gradient" cx="16.53" cy="30.99" fx="16.53" fy="30.99" r="116.09" gradientUnits="userSpaceOnUse">
      <stop offset=".15" stop-color="#ea9fad"/>
      <stop offset=".81" stop-color="#e08b9c"/>
    </radialGradient>
    <linearGradient id="linear-gradient" x1="144.96" y1="83.71" x2="110.06" y2="110.72" gradientTransform="translate(-95.26 -83.64) rotate(6.33)" gradientUnits="userSpaceOnUse">
      <stop offset="0" stop-color="#fff" stop-opacity="0"/>
      <stop offset=".09" stop-color="#fffefc" stop-opacity=".05"/>
      <stop offset=".26" stop-color="#fffcf5" stop-opacity=".19"/>
      <stop offset=".48" stop-color="#fff9ea" stop-opacity=".4"/>
      <stop offset=".75" stop-color="#fff5db" stop-opacity=".7"/>
      <stop offset="1" stop-color="#fff1cc"/>
    </linearGradient>
    <linearGradient id="linear-gradient-2" x1="196.23" y1="98.78" x2="154.83" y2="87.74" gradientTransform="translate(-95.26 -83.64) rotate(6.33)" gradientUnits="userSpaceOnUse">
      <stop offset="0" stop-color="#fff" stop-opacity="0"/>
      <stop offset=".16" stop-color="#fffefe" stop-opacity=".01"/>
      <stop offset=".3" stop-color="#fffefc" stop-opacity=".05"/>
      <stop offset=".41" stop-color="#fffdf9" stop-opacity=".12"/>
      <stop offset=".53" stop-color="#fffcf4" stop-opacity=".21"/>
      <stop offset=".63" stop-color="#fffaee" stop-opacity=".33"/>
      <stop offset=".74" stop-color="#fff8e6" stop-opacity=".48"/>
      <stop offset=".84" stop-color="#fff5dd" stop-opacity=".65"/>
      <stop offset=".93" stop-color="#fff3d3" stop-opacity=".85"/>
      <stop offset="1" stop-color="#fff1cc"/>
    </linearGradient>
    <linearGradient id="linear-gradient-3" x1="197.11" y1="62.16" x2="149.39" y2="102.38" xlink:href="#linear-gradient"/>
    <linearGradient id="linear-gradient-4" x1="484.04" y1="-42.53" x2="482.06" y2="-27.92" gradientTransform="translate(-24.84 -457.07) rotate(90)" xlink:href="#linear-gradient"/>
    <linearGradient id="linear-gradient-5" x1="487.26" y1="-42.1" x2="485.28" y2="-27.48" gradientTransform="translate(-20.11 -454.23) rotate(90)" xlink:href="#linear-gradient"/>
    <linearGradient id="linear-gradient-6" x1="122.68" y1="104.31" x2="118.41" y2="120.98" xlink:href="#linear-gradient"/>
    <linearGradient id="linear-gradient-7" x1="190.9" y1="109.32" x2="180.33" y2="104.04" gradientTransform="translate(175.01 -140.27) rotate(90)" xlink:href="#linear-gradient-2"/>
    <linearGradient id="linear-gradient-8" x1="192.57" y1="106" x2="181.99" y2="100.71" gradientTransform="translate(177.95 -146.21) rotate(90)" xlink:href="#linear-gradient-2"/>
  </defs>
  <g class="cls-2">
    <g id="Layer_2" data-name="Layer 2">
      <g id="Layer_1-2" data-name="Layer 1">
        <g>
          <g>
            <path class="cls-1" d="M11.74,49.11c-1.04,0-2.15-.17-3.29-.5l-.16-.05c-.18-.05-.35-.1-.53-.17-3.44-1.15-5.7-3.11-6.71-5.83-1.43-3.84-.31-8.91,3.34-15.06,1.04-1.78,2.33-3.67,3.81-5.62.01-.02.09-.1.1-.12.29-.4.64-.83.98-1.25l.06-.08c.43-.51.85-.98,1.29-1.46,2.82-2.98,6.09-5.4,9.73-7.21,2.08-1.04,4.27-1.89,6.5-2.52,3.25-.91,6.58-1.38,9.9-1.38,4.5,0,8.78.85,12.39,2.46,1.31.57,2.55,1.26,3.69,2.06.63.45,1.29.93,1.98,1.44.66.48,1.35.99,2.06,1.5,1.91,1.38,4.21,2.97,6.75,4.32.45.24.89.46,1.34.68,3.42,1.64,6.58,2.44,9.66,2.44.63,0,1.25-.03,1.87-.1.84-.09,1.71-.25,2.6-.49.99-.27,1.92-.64,2.76-1.12.36-.2.71-.43,1.03-.66,2.38-1.7,4.14-4.36,5.25-7.89.46-1.46.8-3.11,1.03-4.9.46-3.7.19-6.67.19-6.7-.01-.14.04-.28.15-.37.08-.07.18-.11.29-.11.03,0,.07,0,.1.01l14.4,3.37c.18.04.32.2.34.38,0,.07.74,6.82-.62,14.48-.54,3.03-1.34,5.84-2.38,8.33,0,.02,0,.03-.02.05-2.93,6.99-7.71,11.55-14.21,13.55-1.18.37-2.43.66-3.71.84-1.46.23-2.98.35-4.65.35-.51,0-1.02-.01-1.55-.03,0,0-.1,0-.11,0-9.9-.45-15.47-3.36-19.22-5.85l-.14-.09c-.36-.24-.7-.47-1.05-.72-1.17-.82-2.26-1.66-3.3-2.48-.78-.61-1.54-1.2-2.31-1.76-1.64-1.2-3.66-2.54-6.11-3.32-.95-.3-1.9-.5-2.9-.62-.88-.1-1.65-.17-2.35-.2-.26,0-.51-.01-.76-.01-2.61,0-4.8.47-6.71,1.43-1.9.95-3.53,2.4-5.13,4.55-.27.37-.54.76-.8,1.14-.74,1.09-1.43,2.26-2.11,3.39l-.52.87c-.26.43-.52.89-.8,1.37-.24.43-.5.87-.76,1.32-2.33,4.02-5.28,8.32-10.69,8.32Z"/>
            <path class="cls-12" d="M89.81.88l13.51,3.16.89.21s.75,6.67-.62,14.35c-.48,2.71-1.23,5.56-2.37,8.28h0c-2.44,5.83-6.67,11.07-13.93,13.31-1.14.36-2.35.64-3.64.83-1.44.23-2.96.34-4.58.34-.5,0-1.01-.01-1.54-.03-.06,0-.12-.01-.18-.01-9.06-.41-14.62-2.92-18.92-5.77-.4-.27-.79-.53-1.17-.8-2.04-1.43-3.81-2.92-5.61-4.23-1.94-1.42-3.9-2.64-6.24-3.38-.93-.29-1.91-.51-2.98-.64-.84-.1-1.64-.17-2.39-.2-.27,0-.53-.01-.78-.01-2.83,0-5.06.55-6.91,1.47-2.22,1.11-3.87,2.77-5.29,4.68-.28.38-.55.77-.81,1.16-.93,1.37-1.77,2.83-2.64,4.28-.49.82-1,1.74-1.56,2.69-2.22,3.83-5.11,8.1-10.31,8.1-.97,0-2.03-.15-3.17-.48-.23-.07-.44-.13-.67-.21C-.03,45.33-1.45,38.22,4.76,27.73c1.04-1.77,2.3-3.63,3.78-5.58.02-.02.04-.05.06-.07.35-.47.72-.92,1.08-1.36.42-.5.84-.97,1.27-1.44,2.88-3.04,6.14-5.39,9.6-7.11,2.09-1.05,4.25-1.88,6.42-2.49,3.27-.92,6.59-1.36,9.78-1.36,4.46,0,8.69.85,12.21,2.42,1.31.57,2.52,1.25,3.62,2.02,1.23.87,2.57,1.89,4.04,2.94,2.05,1.48,4.33,3.04,6.8,4.35.45.24.9.47,1.36.69,3.05,1.46,6.36,2.48,9.85,2.48.63,0,1.27-.03,1.92-.1.88-.09,1.77-.26,2.67-.5,1.05-.28,2-.67,2.86-1.16.37-.21.73-.44,1.07-.68,2.79-2,4.45-5.03,5.42-8.12.53-1.69.85-3.41,1.05-4.98.47-3.8.19-6.8.19-6.8M89.81,0c-.21,0-.42.08-.58.22-.21.19-.33.46-.3.75,0,.03.26,2.96-.19,6.61-.23,1.77-.57,3.39-1.02,4.82-1.08,3.44-2.79,6.02-5.09,7.67-.32.23-.66.44-.99.63-.81.46-1.7.82-2.65,1.07-.87.23-1.72.39-2.53.47-.61.07-1.22.1-1.83.1-3.01,0-6.11-.78-9.47-2.4-.42-.2-.86-.42-1.33-.67-2.54-1.35-4.92-3-6.7-4.29-.72-.51-1.4-1.01-2.05-1.5-.7-.51-1.36-1-1.99-1.45-1.17-.82-2.44-1.52-3.78-2.11-3.65-1.63-8-2.49-12.56-2.49-3.36,0-6.73.47-10.02,1.39-2.26.64-4.47,1.49-6.58,2.55-3.68,1.83-7,4.28-9.84,7.29-.53.58-.93,1.03-1.31,1.48l-.06.08c-.34.42-.69.85-1.03,1.3,0,.01-.02.02-.03.03-.02.02-.03.04-.05.06-1.49,1.97-2.79,3.87-3.84,5.67C.28,33.56-.85,38.76.63,42.73c1.06,2.85,3.41,4.9,6.99,6.09.18.06.36.12.55.17l.15.04c1.2.34,2.35.52,3.43.52,6.12,0,9.34-5.55,11.07-8.54.26-.44.51-.88.76-1.31.27-.48.54-.94.8-1.37l.52-.88c.67-1.13,1.36-2.29,2.09-3.36.26-.38.52-.76.79-1.13,1.56-2.09,3.14-3.5,4.97-4.41,1.85-.93,3.98-1.38,6.51-1.38.25,0,.5,0,.75.01.69.03,1.45.09,2.32.19.97.12,1.89.32,2.82.61,2.39.76,4.37,2.07,5.98,3.25.76.56,1.52,1.14,2.31,1.76,1.05.81,2.13,1.66,3.32,2.48.32.23.65.45.99.68l.2.13c3.81,2.52,9.44,5.47,19.37,5.92h.06c.05,0,.11.01.16.01.5.02,1.02.03,1.54.03,1.69,0,3.24-.12,4.72-.35,1.29-.19,2.57-.48,3.77-.86,6.62-2.04,11.5-6.69,14.48-13.8.01-.03.02-.05.03-.08,1.05-2.52,1.86-5.35,2.4-8.4,1.38-7.72.66-14.32.63-14.6-.04-.37-.31-.67-.67-.76l-.89-.21L90.01.02c-.07-.02-.13-.02-.2-.02h0Z"/>
          </g>
          <path class="cls-13" d="M27.06,32.44c-.28.38-.55.77-.81,1.16-.93,1.37-1.77,2.83-2.64,4.28-.49.82-1,1.74-1.56,2.69-9.78-3.24-15.01-9.39-17.29-12.84,1.04-1.77,2.3-3.63,3.78-5.58.02-.02.04-.05.06-.07.35-.47.72-.92,1.08-1.36.42-.5.84-.97,1.27-1.44,4.89,8.1,12.69,11.84,16.11,13.16Z"/>
          <path class="cls-13" d="M40.04,26.3c-3.2-.11-5.68.45-7.69,1.46-.7-6.91-4-14.95-5.38-18.08,3.27-.92,6.59-1.36,9.78-1.36,2.55,6.18,3.15,14.15,3.29,17.98Z"/>
          <path class="cls-13" d="M64.78,20.74c-1.39,5.18-4.61,11.56-6.35,14.81-.4-.27-.79-.53-1.17-.8-2.04-1.43-3.81-2.92-5.61-4.23,2.35-4.2,4.1-10.94,4.97-14.82,2.05,1.48,4.33,3.04,6.8,4.35.45.24.9.47,1.36.69Z"/>
          <path class="cls-13" d="M77.35,41.32c1.23-6.84.07-14.18-.8-18.2.88-.09,1.77-.26,2.67-.5,1.05-.28,2-.67,2.86-1.16.37-.21.73-.44,1.07-.68,3.62,5.96,4.14,14.89,4.14,19.41l-9.94,1.13Z"/>
          <path class="cls-13" d="M103.59,18.6c-.48,2.71-1.23,5.56-2.37,8.28-3.5-6.1-9.53-11.6-12.65-14.22.53-1.69.85-3.41,1.05-4.98,6.58,3.28,11.46,8.09,13.97,10.92Z"/>
          <path class="cls-3" d="M77.53,41.33c-21.38-.92-23.34-13.39-35.1-14.84-11.74-1.45-15,4.99-18.82,11.38-2.88,4.78-6.26,12.83-15.04,10.31,3.14-.53,8.37-2.99,13.53-13.21,7.28-14.43,21.26-13.66,29.78-7.31,7.88,5.87,15.12,12.96,33.37,9.9,14.96-2.51,14.97-22,10.55-23.08-4.41-1.07-8.85,12.26-22.17,10.98-16.86-1.62-15.48-10.95-32.16-14.78C24.77,6.87,8.58,22.23,8.58,22.23l-.04-.08s.04-.05.06-.07C20.52,6.39,42.09,5.36,52.57,12.76c6.2,4.37,15.75,12.78,26.64,9.86,12.35-3.31,10.59-21.74,10.59-21.74l14.41,3.38s4.32,38.4-26.68,37.08Z"/>
          <path class="cls-4" d="M45.41,27.14c-.93-.28-1.92-.51-2.98-.64-9.08-1.12-13.08,2.47-16.18,7.11-8.06-2.58-13.29-7.94-16.57-12.88,10.82-12.84,28.39-14.82,39.28-9.98-.27,5.32-1.14,11.58-3.55,16.4Z"/>
          <path class="cls-6" d="M83.65,41.03c-1.88.3-3.9.4-6.12.31-10.01-.42-15.77-3.4-20.27-6.58.91-5.01,3.61-10.44,6.16-14.7,4.69,2.51,10.06,4.11,15.79,2.57,1.06-.29,2.01-.67,2.87-1.16,3.44,9.61,2.69,16,1.57,19.56Z"/>
          <path class="cls-7" d="M83.65,41.03c-1.88.3-3.9.4-6.12.31-10.01-.42-15.77-3.4-20.27-6.58-4.24-2.99-7.35-6.18-11.85-7.61-.93-.28-1.92-.51-2.98-.64-9.08-1.12-13.08,2.47-16.18,7.11-.93,1.36-1.77,2.83-2.64,4.28-2.88,4.78-6.26,12.83-15.04,10.31-.23-.06-.44-.13-.67-.2-9.26-3.1-9.64-12.28.63-25.83.03-.02.04-.05.06-.07.35-.47.72-.92,1.09-1.36,3.15-3.75,6.89-6.57,10.86-8.55-3.8,2.28-8.76,6.32-12.97,13.23C-.54,38.72,1.9,42.56,5.03,45.32c3.12,2.75,6.86,2.71,10.31,1.59,3.45-1.14,6.18-7.26,8.61-11.26,2.43-3.99,5.36-9.16,12.9-9.85,7.54-.67,11.33,1.49,14.73,3.72s6.89,6.79,16.34,9.45c9.45,2.67,19.43,2.09,25.77-2.73,6.34-4.84,8.91-16.32,8.91-16.32,0,0,1.33-11.16.71-15.87l.9.22s3.72,33.11-20.56,36.77Z"/>
          <ellipse class="cls-8" cx="8.94" cy="25.78" rx="3.98" ry="2.35" transform="translate(-17.9 20.89) rotate(-60.55)"/>
          <ellipse class="cls-10" cx="8.87" cy="31.26" rx="2.04" ry="1.2" transform="translate(-22.71 23.61) rotate(-60.55)"/>
          <path class="cls-9" d="M8.16,25.57s-4.52,7.43-4.78,13.63c-.27,6.2,5.78,9.17,11.15,7.26,5.37-1.91,7.05-9.04,9.09-12.41,2.04-3.37,3.61-4.11,3.61-4.11"/>
          <ellipse class="cls-11" cx="71.5" cy="39.01" rx="1.39" ry="3.39" transform="translate(24.85 105.77) rotate(-83.67)"/>
          <ellipse class="cls-5" cx="76.29" cy="37.68" rx=".65" ry="1.53" transform="translate(30.42 109.34) rotate(-83.67)"/>
        </g>
      </g>
    </g>
  </g>
</svg>