<?xml version="1.0" encoding="UTF-8"?>
<svg xmlns="http://www.w3.org/2000/svg" xmlns:xlink="http://www.w3.org/1999/xlink" viewBox="0 0 106.59 29.96">
  <defs>
    <style>
      .cls-1 {
        fill: #e3b1b5;
      }

      .cls-1, .cls-2 {
        mix-blend-mode: multiply;
      }

      .cls-3 {
        fill: url(#linear-gradient-5);
      }

      .cls-4 {
        fill: url(#linear-gradient-4);
      }

      .cls-5 {
        fill: url(#linear-gradient-3);
      }

      .cls-6 {
        fill: url(#linear-gradient-2);
      }

      .cls-7 {
        fill: #fff;
        mix-blend-mode: overlay;
      }

      .cls-8 {
        fill: #b4b1b6;
      }

      .cls-9 {
        fill: url(#linear-gradient);
      }

      .cls-2 {
        fill: #c9bfc0;
      }

      .cls-10 {
        isolation: isolate;
      }

      .cls-11 {
        fill: #421e25;
      }

      .cls-12 {
        fill: #87515c;
      }

      .cls-13 {
        fill: #878787;
      }

      .cls-14 {
        fill: #e3979d;
      }

      .cls-15 {
        fill: #fdfdfd;
      }
    </style>
    <linearGradient id="linear-gradient" x1="101.2" y1="10.26" x2="103.9" y2="9.42" gradientUnits="userSpaceOnUse">
      <stop offset="0" stop-color="#707070"/>
      <stop offset=".44" stop-color="#fff"/>
      <stop offset=".56" stop-color="#fff"/>
      <stop offset="1" stop-color="#707070"/>
    </linearGradient>
    <linearGradient id="linear-gradient-2" x1="100.53" y1="7.7" x2="102.88" y2="6.97" xlink:href="#linear-gradient"/>
    <linearGradient id="linear-gradient-3" x1="103.72" y1="20.68" x2="106.61" y2="19.78" xlink:href="#linear-gradient"/>
    <linearGradient id="linear-gradient-4" x1="-113.76" y1="-224.69" x2="-124.6" y2="-210.5" gradientTransform="translate(265.73 183.93) rotate(-17.16)" gradientUnits="userSpaceOnUse">
      <stop offset="0" stop-color="#783742"/>
      <stop offset="1" stop-color="#5e2b34"/>
    </linearGradient>
    <linearGradient id="linear-gradient-5" x1="1072.98" y1="141.75" x2="1062.14" y2="155.95" gradientTransform="translate(1082.14 183.93) rotate(-162.84) scale(1 -1)" xlink:href="#linear-gradient-4"/>
  </defs>
  <g class="cls-10">
    <g id="Layer_2" data-name="Layer 2">
      <g id="Layer_1-2" data-name="Layer 1">
        <g>
          <g>
            <path class="cls-14" d="M103.79,29.69c-.68,0-1.93-.81-3.62-1.96-.02,0-.04-.03-.07-.05l-.55-.37c-2.15-1.47-4.82-3.29-7.26-4.26-.94-.37-1.81-.68-2.6-.96-2.32-.82-4-1.41-4.54-2.62-.3-.67-.24-1.45.18-2.48.31-.76.52-1.94.77-3.31.86-4.84,2.15-12.15,10.09-13.29.01,0,.03,0,.04,0,.05,0,.09.01.14.04.07.04,1.69.99,3.56,3.47,2.02,2.68,3.5,6.03,4.4,9.95,2.58,11.16.45,14.95,0,15.59-.08.11-.24.25-.52.25Z"/>
            <path class="cls-12" d="M96.22.66s1.62.93,3.47,3.4c1.56,2.08,3.29,5.24,4.36,9.85,2.34,10.1.78,14.32.03,15.37-.06.09-.17.13-.3.13-.61,0-1.89-.84-3.53-1.95,0,0,0,0,0,0,0,0,0,0,0,0-2.26-1.54-5.19-3.6-7.86-4.66-5.03-1.99-8.25-2.2-6.81-5.7,1.44-3.51.66-15,10.64-16.44M96.22.12s-.05,0-.08,0c-8.13,1.17-9.45,8.59-10.32,13.51-.24,1.35-.45,2.52-.75,3.26-.45,1.08-.5,1.96-.18,2.69.59,1.32,2.31,1.93,4.69,2.77.78.28,1.66.59,2.6.96,2.41.95,5.07,2.77,7.2,4.22l.55.38s.02.01.03.02c2.07,1.41,3.11,2.03,3.82,2.03.32,0,.58-.13.75-.36.47-.66,2.66-4.54.05-15.81-.92-3.96-2.41-7.34-4.45-10.06-1.9-2.53-3.57-3.5-3.64-3.54-.08-.05-.18-.07-.27-.07h0Z"/>
          </g>
          <path class="cls-1" d="M100.25,27.46c-2.26-1.54-5.19-3.6-7.86-4.66-5.03-1.99-8.25-2.2-6.81-5.7,1.44-3.51.66-15,10.64-16.44,0,0,1.62.93,3.47,3.4-2.91,3-10.04,12.31.55,23.4Z"/>
          <path class="cls-9" d="M101.51,9.43c.09.25.27.48.48.57.2.1.47.12.74.05.28-.04.49-.16.55-.3.08-.14,0-.42-.17-.52l-.04-.02c-.1-.06-.13-.18-.07-.28.05-.08.14-.12.22-.09.47.12.75.6.62,1.09-.16.51-.65.68-.99.76-.37.07-.8.06-1.17-.18-.37-.25-.55-.63-.57-1.03,0-.11.08-.21.19-.22.09,0,.17.05.2.13v.03Z"/>
          <path class="cls-6" d="M100.87,7.12c.13.15.34.3.54.34.2.06.44.03.64-.01.2-.05.32-.19.3-.28,0-.1-.18-.26-.41-.33h0c-.11-.03-.17-.15-.14-.26.03-.1.12-.16.22-.14.29.03.73.15.85.62.1.5-.32.84-.63.94-.33.13-.67.11-1.01,0-.33-.13-.59-.37-.73-.71-.04-.1,0-.22.11-.26.08-.03.17,0,.23.05l.03.03Z"/>
          <path class="cls-5" d="M104.26,20.02c.16.14.39.26.58.29.2.05.43,0,.64-.07.22-.07.3-.19.32-.27.02-.08-.04-.23-.24-.31h-.02c-.15-.06-.23-.23-.18-.39.04-.12.16-.19.28-.2.4,0,.92.34.93.9.02.57-.46.91-.8,1.04-.36.14-.76.17-1.16.05-.39-.14-.69-.39-.88-.76-.07-.14-.02-.32.13-.39.11-.06.24-.04.32.04l.05.04Z"/>
          <g>
            <path class="cls-15" d="M96.01,26.41c-2.1,0-6.73-2.42-8.84-4.63-.73-.76-1.08-1.43-1.06-1.98.1-2.21.88-6.67,1.04-7.54.1-.54.16-.87.16-.87.05-.11.82-1.51,2.48-2.23,1.63-.72,2.09-1.05,2.44-1.47.04-.04.09-.06.14-.06.02,0,.04,0,.06.01.07.03.12.1.12.17,0,.02-.02.1-.02.12-.04.24-.25,1.06-1.08,1.76.44-.01,1.08-.09,1.82-.38.89-.35,1.38-.8,1.6-1.05,0,0,.02-.02.02-.02.09-.1.13-.17.14-.17.03-.05.09-.09.15-.09.01,0,.03,0,.04,0,.08.02.13.08.14.16.01.11.28,2.51-1.39,3.82.15.02.33.06.53.11.84.24,2.02.83,3,2.31.46.68.83,1.49,1.12,2.43.02.08,0,.17-.08.21-.03.02-.06.03-.09.03-.05,0-.1-.02-.13-.06-.03-.02-.12-.12-.13-.16-.07-.05-.1-.08-.13-.11-.27-.24-.85-.65-1.57-.65-.15,0-.3.02-.45.05-.43.1-.65.37-.66.79-.02.61.42,1.3.78,1.41.13.04.26.06.4.06.5,0,.89-.26.9-.26.03-.02.07-.03.1-.03.04,0,.08.01.11.04.06.05.08.13.06.21-.02.05-.43,1.06-1.71,1.3.7.53,1.98,1.81,1.87,4.05,0,.08-.06.15-.15.17-.01,0-.02,0-.03,0-.07,0-.13-.04-.16-.11,0,0-.14-.29-.41-.65-.17-.23-.41-.51-.72-.77.52.75,1.13,1.9.95,2.92-.06.29-.17.56-.33.78-.19.26-.53.39-1.02.39Z"/>
            <path class="cls-13" d="M92.36,7.8h0M92.36,7.8s0,.02-.01.06c-.04.25-.29,1.27-1.43,1.98,0,0,.15.02.42.02.43,0,1.15-.06,1.99-.39.93-.36,1.45-.84,1.69-1.11t0,0c.11-.13.16-.2.16-.2,0,0,.34,2.78-1.76,3.94,0,0,.02,0,.05,0,.12,0,.48.01.97.15,0,0,0,0,0,0,0,0,0,0,0,0,.8.23,1.94.81,2.89,2.23h0c.42.62.8,1.4,1.1,2.38,0,0-.01-.01-.03-.04-.01-.01-.03-.04-.06-.06h0s-.04-.05-.08-.08c-.02-.03-.06-.07-.1-.11-.33-.29-.93-.7-1.69-.7-.16,0-.32.02-.49.06-1.43.34-.66,2.32.11,2.55.16.05.31.07.46.07.56,0,1-.29,1-.29,0,0-.47,1.21-2.07,1.24,0,0,2.36,1.19,2.21,4.17,0,0-.14-.3-.43-.68,0,0-.01-.01-.01-.02-.33-.44-.87-.99-1.65-1.35,0,0,1.86,2,1.57,3.6-.05.24-.14.48-.3.7-.16.22-.46.31-.87.31-2.68,0-9.82-4.2-9.72-6.42.09-1.95.73-5.8,1.04-7.52h0c.1-.54.16-.87.16-.87,0,0,.76-1.39,2.37-2.09,1.61-.71,2.12-1.06,2.51-1.52M97.55,18.26h0M92.36,7.44s-.01,0-.02,0c-.07,0-.14.03-.2.07-.02.01-.04.03-.05.05,0,0,0,0,0,.01-.34.4-.78.72-2.38,1.42-1.71.74-2.51,2.19-2.54,2.25-.02.03-.03.07-.04.11,0,0-.06.33-.16.86,0,.02,0,.04,0,.05-.17.97-.94,5.33-1.04,7.52-.03.61.35,1.32,1.11,2.11,2.14,2.23,6.83,4.69,8.97,4.69.55,0,.94-.15,1.16-.46.18-.24.3-.53.37-.85.08-.47.01-.95-.14-1.42.07.11.18.17.31.17.02,0,.05,0,.07,0,.16-.03.28-.17.29-.34.1-2.06-.9-3.33-1.65-3.97.97-.33,1.37-1.08,1.46-1.27.03-.05.05-.11.05-.18,0-.2-.16-.36-.36-.36h0c-.07,0-.14.02-.2.06-.02.01-.37.23-.79.23-.12,0-.24-.02-.35-.05-.27-.08-.67-.67-.66-1.23,0-.34.18-.54.52-.62.13-.03.27-.05.41-.05.66,0,1.19.38,1.45.61.02.02.04.04.06.06.01.01.03.03.04.04,0,0,.02.02.04.04.02.03.04.05.07.07.08.08.19.13.3.13.06,0,.11-.01.16-.04.15-.09.23-.23.18-.39-.29-.94-.67-1.77-1.13-2.45,0-.01-.01-.02-.02-.03-1.01-1.52-2.24-2.14-3.09-2.38-.01,0-.03,0-.04,0-.05-.02-.11-.03-.16-.04,1.44-1.41,1.19-3.63,1.18-3.74-.02-.15-.13-.28-.28-.31-.03,0-.05,0-.08,0-.13,0-.24.06-.31.18,0,0-.04.05-.1.13-.02.02-.04.05-.06.07-.22.24-.68.65-1.51.98-.47.18-.91.28-1.27.32.55-.62.72-1.26.77-1.51,0-.02,0-.03.01-.05,0-.03.01-.06.01-.1,0-.2-.16-.36-.36-.36h0ZM92.36,8.17h0,0Z"/>
          </g>
          <path class="cls-8" d="M93.42,12.09s.41-.02,1.02.15c-1.37-.15-2.57.13-2.57.13,0,0,.98-.6,1.99-1.82.63-.76.98-1.64,1.15-2.2t0,0c.11-.13.16-.2.16-.2,0,0,.34,2.78-1.76,3.94Z"/>
          <path class="cls-8" d="M88.35,15.61s.89-2.99,4.9-2.26c0,0-3.6,1.11-4.22,4.46s-1.09-2.16-1.09-2.16l.41-.03Z"/>
          <path class="cls-8" d="M88.9,17.09s2.69-2.21,6.08-.27c0,0-3.77.46-5.32,3.02s-.75-2.75-.75-2.75Z"/>
          <path class="cls-8" d="M95.61,21.62s1.86,2,1.57,3.6l-.85.6s-2.49-.59-2.76-.71c-.26-.11-2.77-.92-3.15-1.5-.37-.59-1.39-1.61-1.51-2.07-.04-.15.03-.55.12-1h0c.2-.87.53-1.95.53-1.95.01,0,.6-.18,1.45-.21,1.15-.04,2.79.21,4.16,1.55,1.08,1.06,1.71,2.16,2.07,3.05-.33-.44-.87-.99-1.65-1.35Z"/>
          <path class="cls-8" d="M92.36,7.8s0,.02-.01.06c-.08.27-.51,1.41-2.84,2.73-1.1.62-1.77,1.21-2.19,1.69.1-.53.16-.86.16-.86,0,0,.76-1.39,2.37-2.09,1.61-.71,2.12-1.06,2.51-1.52Z"/>
          <path class="cls-8" d="M98.44,16.86s-.01-.01-.03-.04c-.01-.01-.03-.04-.06-.06h0s-.04-.05-.08-.08c-.02-.03-.06-.07-.1-.11-.63-.61-2.31-2.01-4.52-1.93,0,0,2-.93,3.69-.17h0c.42.62.8,1.4,1.1,2.38Z"/>
          <g>
            <path class="cls-4" d="M88.14,19.96c-3.93,0-7.78-2.79-7.86-4.06-.06-1.07,1.04-3.9,3.2-7.02,1.08-1.56,2.35-3.08,3.79-4.54,3.51-3.54,6.47-4.07,7.92-4.07.22,0,.42.01.58.03.36.04.55.1.55.1.12.04.2.16.19.29-.01.13-.11.23-.24.25-.28.03-.85.13-1.59.47-.88.4-2.14,1.2-3.29,2.8-.62.86-1.14,1.87-1.54,3-1.72,4.8.66,12.03.68,12.1.02.07.02.15-.02.21-.03.07-.09.11-.16.14-.69.21-1.43.31-2.2.31Z"/>
            <path class="cls-11" d="M95.18.54c.21,0,.4.01.55.03.32.04.5.09.5.09-.43.05-1.01.19-1.67.49,0,0-.02.01-.03.02-1.05.48-2.29,1.36-3.37,2.87-.59.82-1.14,1.83-1.58,3.06-1.77,4.95.68,12.28.68,12.28-.7.21-1.41.3-2.12.3-3.85,0-7.52-2.71-7.59-3.8-.05-.91.9-3.6,3.15-6.85.99-1.43,2.23-2.96,3.76-4.5,3.42-3.45,6.27-3.99,7.72-3.99M95.18,0h0c-1.49,0-4.53.54-8.11,4.15-1.45,1.46-2.73,3-3.82,4.58-2.22,3.21-3.32,6.04-3.25,7.19.1,1.55,4.23,4.32,8.14,4.32.8,0,1.56-.11,2.28-.33.14-.04.26-.14.33-.27s.08-.28.03-.42c-.02-.07-2.37-7.21-.69-11.92.4-1.1.9-2.09,1.51-2.93,1.11-1.55,2.33-2.32,3.15-2.69h0s.04-.02.05-.03c.69-.31,1.22-.41,1.48-.44.26-.03.46-.24.48-.49s-.14-.5-.39-.57c-.02,0-.23-.07-.59-.11-.17-.02-.37-.03-.61-.03h0Z"/>
          </g>
          <path class="cls-2" d="M91.16,4.04c-.59.82-1.14,1.83-1.58,3.06-1.77,4.95.68,12.28.68,12.28-4.49,1.36-9.63-2.2-9.72-3.5-.05-.91.9-3.6,3.15-6.85-.24,1.43-.55,3.8-.14,4.42.6.92.49-2.43,3.62-6.55-.08.24-1.32,4.21-.59,7.1,0,0,.39-5.37,4.56-9.96Z"/>
          <path class="cls-7" d="M95.72.57c-10.01,2.17-15.18,15.31-15.18,15.31-.05-.91.9-3.6,3.15-6.85.99-1.43,2.23-2.96,3.76-4.5,3.92-3.95,7.09-4.08,8.27-3.96Z"/>
        </g>
        <g>
          <g>
            <path class="cls-14" d="M2.05,29.69c-.29,0-.44-.14-.52-.25-.45-.65-2.59-4.43,0-15.59.91-3.92,2.39-7.27,4.4-9.95C7.79,1.41,9.41.46,9.48.42c.04-.02.09-.04.14-.04.01,0,.03,0,.04,0,7.94,1.14,9.23,8.45,10.09,13.29.24,1.37.45,2.55.77,3.32.42,1.02.48,1.81.18,2.48-.54,1.21-2.22,1.81-4.54,2.63-.79.28-1.67.59-2.6.96-2.44.96-5.11,2.79-7.26,4.26,0,0-.56.38-.57.39-1.72,1.17-2.99,1.99-3.67,1.99h0Z"/>
            <path class="cls-12" d="M9.62.66c9.99,1.43,9.2,12.93,10.64,16.44,1.44,3.5-1.78,3.72-6.81,5.7-2.68,1.06-5.6,3.12-7.86,4.66,0,0,0,0,0,0,0,0,0,0,0,0-1.64,1.11-2.92,1.95-3.53,1.95-.14,0-.24-.04-.3-.13-.74-1.06-2.3-5.27.03-15.37,1.07-4.61,2.8-7.77,4.36-9.85,1.86-2.47,3.47-3.4,3.47-3.4M9.62.12c-.09,0-.19.02-.27.07-.07.04-1.74,1.01-3.64,3.54-2.04,2.71-3.54,6.1-4.45,10.06-2.61,11.27-.42,15.15.05,15.81.17.23.43.36.75.36.7,0,1.75-.63,3.82-2.03.01,0,.02-.01.03-.02l.55-.38c2.14-1.46,4.8-3.27,7.2-4.22.93-.37,1.82-.68,2.6-.96,2.38-.84,4.1-1.45,4.69-2.77.33-.73.27-1.61-.18-2.69-.3-.73-.51-1.9-.75-3.26C19.14,8.72,17.82,1.29,9.69.12c-.03,0-.05,0-.08,0h0Z"/>
          </g>
          <path class="cls-1" d="M5.59,27.46c2.26-1.54,5.19-3.6,7.86-4.66,5.03-1.99,8.25-2.2,6.81-5.7-1.44-3.51-.66-15-10.64-16.44,0,0-1.62.93-3.47,3.4,2.91,3,10.04,12.31-.55,23.4Z"/>
          <g>
            <path class="cls-15" d="M9.83,26.41c-.48,0-.83-.13-1.02-.39-.16-.22-.28-.48-.33-.78-.18-1.02.43-2.16.95-2.92-.31.26-.54.53-.71.75-.29.38-.42.66-.43.67-.03.07-.09.11-.16.11-.01,0-.02,0-.03,0-.08-.02-.14-.08-.15-.17-.11-2.24,1.17-3.52,1.87-4.05-1.28-.24-1.69-1.25-1.71-1.3-.03-.07,0-.16.06-.21.03-.03.07-.04.11-.04.03,0,.07,0,.1.03,0,0,.4.26.9.26.14,0,.27-.02.4-.06.36-.11.8-.79.78-1.41-.01-.42-.23-.69-.66-.79-.15-.04-.3-.05-.45-.05-.72,0-1.29.41-1.57.65-.03.03-.06.06-.08.08-.01.04-.08.09-.11.11-.04.04-.12.08-.19.08-.02,0-.05,0-.07-.02-.07-.04-.14-.09-.11-.17.29-.94.67-1.75,1.12-2.42.99-1.48,2.17-2.08,2.99-2.31.02,0,.03,0,.05,0,.19-.05.36-.09.5-.11-1.68-1.31-1.41-3.71-1.4-3.82,0-.08.07-.14.14-.16.01,0,.03,0,.04,0,.06,0,.12.03.15.09,0,0,.05.07.14.17,0,0,.01.02.02.02.22.25.71.7,1.6,1.05.74.29,1.38.36,1.82.38-.83-.7-1.04-1.52-1.08-1.79,0-.08.04-.19.11-.22.04-.01.08-.03.11-.03.03,0,.06,0,.08.04.36.42.81.75,2.44,1.47,1.65.72,2.43,2.11,2.46,2.17.02.06.08.38.18.92,0,.03,0,.07,0,.1.1.44.94,5.18,1.05,7.45.02.55-.33,1.22-1.06,1.98-2.11,2.21-6.74,4.63-8.84,4.63Z"/>
            <path class="cls-13" d="M13.48,7.8c.39.46.9.81,2.51,1.52,1.61.7,2.37,2.09,2.37,2.09,0,0,.06.33.16.86h0c.31,1.72.95,5.57,1.04,7.53.1,2.22-7.04,6.42-9.72,6.42-.41,0-.71-.1-.87-.31-.16-.22-.25-.46-.3-.7-.29-1.6,1.57-3.6,1.57-3.6-.78.36-1.32.91-1.65,1.35,0,0,0,.01-.01.02-.29.38-.43.68-.43.68-.15-2.97,2.21-4.17,2.21-4.17-1.59-.03-2.07-1.24-2.07-1.24,0,0,.43.29,1,.29.15,0,.3-.02.46-.07.77-.23,1.54-2.21.11-2.55-.17-.04-.33-.06-.49-.06-.76,0-1.36.41-1.69.7-.04.04-.08.08-.1.11-.03.03-.06.06-.08.08h0s-.04.05-.06.07c-.02.02-.03.04-.03.04.3-.98.68-1.76,1.1-2.37h0c.95-1.43,2.08-2.01,2.89-2.24,0,0,0,0,0,0,0,0,0,0,0,0,.49-.14.85-.15.97-.15.03,0,.05,0,.05,0-2.09-1.15-1.76-3.94-1.76-3.94,0,0,.05.07.16.2t0,0c.24.27.76.75,1.69,1.11.84.33,1.56.39,1.99.39.27,0,.42-.02.42-.02-1.14-.71-1.39-1.73-1.43-1.98-.01-.03-.01-.06-.01-.06M13.48,7.44s-.09,0-.13.02c-.14.05-.24.19-.24.35,0,.03,0,.08.02.14.05.26.22.89.77,1.51-.36-.05-.79-.14-1.27-.33-.82-.32-1.29-.73-1.51-.98-.02-.03-.04-.05-.06-.07-.06-.07-.09-.12-.1-.13-.07-.11-.19-.17-.31-.17-.03,0-.05,0-.08,0-.15.03-.26.16-.28.31-.01.11-.26,2.33,1.18,3.74-.05.01-.1.03-.16.04-.01,0-.03,0-.04,0-.85.25-2.07.86-3.09,2.38,0,.01-.01.02-.02.03-.46.68-.83,1.5-1.13,2.44-.05.16.02.33.16.42.06.03.12.05.18.05.1,0,.19-.04.26-.11l.07-.07s.05-.04.07-.07c.02-.02.04-.05.06-.06.02-.02.04-.04.07-.07.25-.22.78-.6,1.44-.6.14,0,.27.02.41.05.35.08.51.28.52.62.02.55-.39,1.15-.65,1.23-.11.03-.23.05-.35.05-.44,0-.79-.23-.8-.23-.06-.04-.13-.06-.2-.06-.08,0-.16.03-.23.08-.12.1-.17.27-.11.41.02.05.38.95,1.48,1.32-.75.65-1.75,1.91-1.65,3.97,0,.17.13.31.29.34.02,0,.05,0,.07,0,.12,0,.24-.06.31-.17-.15.46-.22.95-.14,1.41.06.32.19.61.37.85.23.3.62.46,1.16.46,2.14,0,6.84-2.45,8.97-4.69.76-.8,1.14-1.51,1.11-2.11-.1-2.2-.87-6.57-1.04-7.53,0-.02,0-.03,0-.05-.1-.53-.16-.86-.16-.86,0-.04-.02-.08-.04-.11-.03-.06-.84-1.51-2.55-2.25-1.6-.7-2.04-1.02-2.38-1.42-.07-.08-.17-.13-.28-.13h0Z"/>
          </g>
          <path class="cls-8" d="M12.42,12.09s-.41-.02-1.02.15c1.37-.15,2.57.13,2.57.13,0,0-.98-.6-1.99-1.82-.63-.76-.98-1.64-1.15-2.2t0,0c-.11-.13-.16-.2-.16-.2,0,0-.34,2.78,1.76,3.94Z"/>
          <path class="cls-8" d="M17.48,15.61s-.89-2.99-4.9-2.26c0,0,3.6,1.11,4.22,4.46s1.09-2.16,1.09-2.16l-.41-.03Z"/>
          <path class="cls-8" d="M16.94,17.09s-2.69-2.21-6.08-.27c0,0,3.77.46,5.32,3.02s.75-2.75.75-2.75Z"/>
          <path class="cls-8" d="M10.23,21.62s-1.86,2-1.57,3.6l.85.6s2.49-.59,2.76-.71c.26-.11,2.77-.92,3.15-1.5.37-.59,1.39-1.61,1.51-2.07.04-.15-.03-.55-.12-1h0c-.2-.87-.53-1.95-.53-1.95-.01,0-.6-.18-1.45-.21-1.15-.04-2.79.21-4.16,1.55-1.08,1.06-1.71,2.16-2.07,3.05.33-.44.87-.99,1.65-1.35Z"/>
          <path class="cls-8" d="M13.48,7.8s0,.02.01.06c.08.27.51,1.41,2.84,2.73,1.1.62,1.77,1.21,2.19,1.69-.1-.53-.16-.86-.16-.86,0,0-.76-1.39-2.37-2.09-1.61-.71-2.12-1.06-2.51-1.52Z"/>
          <path class="cls-8" d="M7.4,16.86s.01-.01.03-.04c.01-.01.03-.04.06-.06h0s.04-.05.08-.08c.02-.03.06-.07.1-.11.63-.61,2.31-2.01,4.52-1.93,0,0-2-.93-3.69-.17h0c-.42.62-.8,1.4-1.1,2.38Z"/>
          <g>
            <path class="cls-3" d="M17.7,19.96c-.77,0-1.51-.11-2.2-.31-.07-.02-.13-.07-.16-.14-.03-.07-.04-.14-.02-.21.02-.07,2.4-7.3.68-12.1-.4-1.13-.92-2.13-1.54-3-1.14-1.6-2.4-2.4-3.26-2.78-.76-.35-1.34-.46-1.62-.49-.13-.01-.23-.12-.24-.25-.01-.13.07-.25.19-.29,0,0,.19-.06.55-.1.16-.02.35-.03.58-.03,1.45,0,4.41.53,7.92,4.07,1.44,1.45,2.71,2.98,3.79,4.54,2.16,3.12,3.26,5.95,3.2,7.02-.08,1.27-3.93,4.06-7.86,4.06h0Z"/>
            <path class="cls-11" d="M10.66.54c1.45,0,4.31.54,7.72,3.99,1.52,1.54,2.77,3.07,3.76,4.5,2.25,3.25,3.21,5.94,3.15,6.85-.07,1.1-3.74,3.8-7.59,3.8-.71,0-1.42-.09-2.12-.3,0,0,2.45-7.33.68-12.28-.44-1.23-.99-2.24-1.58-3.06-1.08-1.51-2.32-2.39-3.37-2.87,0,0-.02-.01-.03-.02-.66-.3-1.25-.45-1.67-.49,0,0,.18-.05.5-.09.15-.02.33-.03.55-.03M10.66,0c-.24,0-.44.01-.6.03-.37.04-.57.1-.6.11-.25.07-.41.31-.39.57.02.26.22.46.48.49.26.03.79.12,1.48.44.02,0,.04.02.05.03h0c.83.37,2.04,1.15,3.15,2.69.61.84,1.11,1.83,1.51,2.93,1.69,4.71-.66,11.85-.69,11.92-.05.14-.03.29.03.42.07.13.19.23.33.27.72.22,1.48.33,2.28.33,3.9,0,8.04-2.77,8.13-4.31.07-1.15-1.03-3.99-3.25-7.19-1.09-1.57-2.37-3.11-3.82-4.58C15.2.54,12.15,0,10.66,0h0Z"/>
          </g>
          <path class="cls-2" d="M14.68,4.04c.59.82,1.14,1.83,1.58,3.06,1.77,4.95-.68,12.28-.68,12.28,4.49,1.36,9.63-2.2,9.72-3.5.05-.91-.9-3.6-3.15-6.85.24,1.43.55,3.8.14,4.42-.6.92-.49-2.43-3.62-6.55.08.24,1.32,4.21.59,7.1,0,0-.39-5.37-4.56-9.96Z"/>
          <path class="cls-7" d="M10.11.57c10.01,2.17,15.18,15.31,15.18,15.31.05-.91-.9-3.6-3.15-6.85-.99-1.43-2.23-2.96-3.76-4.5C14.47.58,11.29.45,10.11.57Z"/>
        </g>
      </g>
    </g>
  </g>
</svg>