<?xml version="1.0" encoding="UTF-8"?>
<svg xmlns="http://www.w3.org/2000/svg" xmlns:xlink="http://www.w3.org/1999/xlink" viewBox="0 0 24.59 22.48">
  <defs>
    <style>
      .cls-1 {
        fill: #9d2d33;
      }

      .cls-2 {
        fill: #ff4953;
        opacity: .28;
      }

      .cls-2, .cls-3 {
        mix-blend-mode: multiply;
      }

      .cls-4 {
        fill: #fff;
      }

      .cls-4, .cls-5, .cls-6 {
        mix-blend-mode: overlay;
      }

      .cls-7 {
        fill: url(#radial-gradient);
      }

      .cls-8 {
        isolation: isolate;
      }

      .cls-5 {
        fill: url(#linear-gradient);
      }

      .cls-6, .cls-9 {
        fill: #ffebee;
      }

      .cls-10 {
        fill: #ea9eaf;
      }

      .cls-3 {
        fill: #ffc9c9;
      }

      .cls-11 {
        fill: #ffd6e7;
      }
    </style>
    <radialGradient id="radial-gradient" cx="808.67" cy="927.39" fx="808.67" fy="927.39" r="14.11" gradientTransform="translate(1219.64 -233.19) rotate(-142.21) scale(1 -1)" gradientUnits="userSpaceOnUse">
      <stop offset="0" stop-color="#fff"/>
      <stop offset="1" stop-color="#ffe7e7"/>
    </radialGradient>
    <linearGradient id="linear-gradient" x1="1354.1" y1="940.07" x2="1353.89" y2="935.7" gradientTransform="translate(1488.51 -716.15) rotate(-171.59) scale(1 -1)" gradientUnits="userSpaceOnUse">
      <stop offset=".13" stop-color="#f35353"/>
      <stop offset=".18" stop-color="#f35353" stop-opacity=".87"/>
      <stop offset=".31" stop-color="#f35353" stop-opacity=".57"/>
      <stop offset=".43" stop-color="#f35353" stop-opacity=".32"/>
      <stop offset=".53" stop-color="#f35353" stop-opacity=".15"/>
      <stop offset=".6" stop-color="#f35353" stop-opacity=".04"/>
      <stop offset=".65" stop-color="#f35353" stop-opacity="0"/>
    </linearGradient>
  </defs>
  <g class="cls-8">
    <g id="Layer_2" data-name="Layer 2">
      <g id="Layer_1-2" data-name="Layer 1">
        <g>
          <g>
            <path class="cls-7" d="M15.24,22.17c-1.96,0-3.93-1.23-4.56-1.66-.16.05-.4.13-.68.2-.57.15-1.42.32-2.32.32-1.65,0-2.91-.59-3.64-1.7-1.52-2.32-.86-4.49-.49-5.34-.74-.2-2.24-.88-2.91-3.04-.16-.51-.27-1.12-.31-1.79-.06-1.11.19-1.98.75-2.57.56-.6,1.41-.9,2.51-.9.58,0,1.1.08,1.42.15.17-1.24,1-5.22,4.56-5.52.15-.01.3-.02.44-.02,1.95,0,2.96,1.15,3.39,1.83.51-.39,1.44-.93,2.69-.93.58,0,1.16.12,1.74.35,3.38,1.34,2.95,5.51,2.76,6.66.72.21,2.59.86,3.36,2.22.38.68.44,1.43.17,2.23-.32.99-.84,1.82-1.53,2.49-1.08,1.05-2.27,1.21-2.88,1.21-.03,0-.05,0-.08,0,.11.93.12,3.19-2.01,4.98-.65.54-1.45.82-2.38.82Z"/>
            <path class="cls-1" d="M10,.62c2.14,0,3.05,1.48,3.31,1.99.31-.28,1.31-1.1,2.78-1.1.49,0,1.04.09,1.63.33,3.71,1.48,2.51,6.6,2.51,6.6,0,0,4.62,1.05,3.59,4.13-.36,1.1-.91,1.85-1.45,2.36-1,.97-2.08,1.13-2.67,1.13-.28,0-.45-.04-.45-.04,0,0,.73,2.93-1.84,5.08-.65.54-1.41.75-2.18.75-2,0-4.07-1.38-4.51-1.69-.14.05-.43.15-.81.25,0,0,0,0-.01,0-.58.15-1.39.31-2.23.31-1.25,0-2.59-.34-3.39-1.56-1.83-2.8-.29-5.39-.29-5.39,0,0-2.23-.2-3.07-2.91-.16-.49-.26-1.06-.3-1.72-.15-2.62,1.56-3.14,2.95-3.14.92,0,1.69.23,1.69.23,0,0,.34-5.26,4.32-5.6.14-.01.28-.02.41-.02M10,0c-.15,0-.31,0-.47.02-3.18.27-4.47,3.38-4.81,5.47-.32-.05-.72-.1-1.15-.1-1.19,0-2.11.33-2.73,1C.22,7.04-.06,7.98.01,9.18c.05.72.16,1.33.33,1.87.63,2.01,1.94,2.81,2.8,3.13-.39,1.06-.8,3.13.63,5.32.79,1.2,2.14,1.84,3.9,1.84.92,0,1.78-.17,2.36-.32.02,0,.03,0,.04,0,.19-.05.37-.1.56-.16.76.5,2.68,1.63,4.6,1.63,1,0,1.87-.3,2.58-.89,2.01-1.69,2.21-3.79,2.15-4.91.7-.04,1.81-.29,2.84-1.29.72-.7,1.27-1.58,1.61-2.61.3-.89.23-1.73-.2-2.48-.74-1.31-2.39-2-3.27-2.28.32-2.08.03-5.53-3-6.74-.62-.25-1.24-.37-1.86-.37-1.14,0-2.04.42-2.61.81C12.93.97,11.85,0,10,0h0Z"/>
          </g>
          <path class="cls-2" d="M4,13.77s-1.55,2.59.29,5.39c1.69,2.56,5.76,1.24,6.44,1,.61.43,4.34,2.9,6.69.94,2.57-2.15,1.84-5.08,1.84-5.08,0,0,1.65.34,3.11-1.09-1.11.36-2.68.75-3.67.45-1.65-.51-2.12-1.11-2.33-2.66-.21-1.54-2.4-3.63-5.18-3.53-2.78.09-4.07,2.05-4.5,2.76-.43.7-4.46,1.35-5.77-1.08.84,2.7,3.07,2.9,3.07,2.9Z"/>
          <path class="cls-4" d="M.63,9.15c.04.66.14,1.23.3,1.72.84,2.7,3.07,2.91,3.07,2.91,0,0-1.55,2.59.29,5.39,1.33,2.03,4.16,1.63,5.62,1.25-1.17.08-3.36,0-4.8-1.39-2.06-1.97-.21-5.72-.21-5.72,0,0-.69.13-1.85-.45-1.16-.58-2.56-4.16-1-5.47,1.56-1.31,4.13-.35,4.18-.32.04.03-.28-5.19,2.8-5.39,3.08-.21,4.24,2.72,4.24,2.72,0,0,1.31-3.09,4.27-1.61,2.96,1.48,1.86,5.83,1.96,6,.09.17,4.51,1.52,3.21,4.17-1.29,2.66-4.53,2.39-4.53,2.39,0,0,1.13,3.08-1.17,5.02-2.31,1.95-6.28-.2-6.28-.2.61.44,4.34,2.91,6.69.94,2.57-2.15,1.84-5.08,1.84-5.08,0,0,1.65.34,3.12-1.09.54-.52,1.09-1.26,1.45-2.36,1.02-3.09-3.59-4.13-3.59-4.13,0,0,1.2-5.13-2.51-6.6-2.34-.93-3.99.39-4.4.77-.27-.55-1.29-2.18-3.72-1.97-3.98.34-4.32,5.6-4.32,5.6,0,0-4.89-1.44-4.64,2.91Z"/>
          <g>
            <g>
              <path class="cls-10" d="M14.8,9.95c-.17,0-.33-.02-.49-.06-.15-.04-.28-.09-.39-.15-.64-.34-1.03-1.04-1.07-1.92,0-.01,0-.02,0-.04-.03-.66.15-1.39.5-2.04.09-.17.18-.33.29-.47.65-.93,1.6-1.51,2.48-1.51.31,0,.61.07.87.21.31.16.56.41.75.74.01.02.02.04.03.05.46.87.39,2.1-.2,3.21-.64,1.2-1.72,1.98-2.77,1.98h0Z"/>
              <path class="cls-11" d="M16.12,3.99c.27,0,.53.06.76.19.29.15.51.38.67.67h0s0,0,0,0c.42.77.38,1.94-.19,3.01-.61,1.15-1.64,1.86-2.56,1.86-.15,0-.29-.02-.43-.05h0c-.11-.03-.23-.07-.33-.13-.59-.31-.92-.97-.95-1.75t0,0c-.02-.6.13-1.28.47-1.93.08-.16.17-.31.27-.45.62-.88,1.49-1.41,2.29-1.41M16.12,3.53c-.96,0-1.98.62-2.67,1.61-.1.13-.19.29-.3.49-.37.69-.55,1.46-.53,2.16,0,.02,0,.04,0,.05.05.96.49,1.72,1.19,2.1.12.06.26.12.43.17,0,0,.02,0,.03,0,.17.04.35.06.53.06,1.13,0,2.29-.82,2.97-2.1.62-1.18.7-2.48.2-3.42-.01-.02-.02-.05-.04-.07-.21-.36-.49-.64-.84-.82-.3-.16-.63-.24-.98-.24h0Z"/>
            </g>
            <path class="cls-3" d="M13.08,7.78c.03.78.36,1.44.95,1.75,1.05.56,2.54-.19,3.33-1.67.78-1.48.57-3.13-.48-3.69-.94-.5-2.23.04-3.06,1.23,0,0,1.45-.96,2.23-.07.77.88.6,2.56-.51,3.45-1.12.9-2.32.05-2.46-1Z"/>
            <path class="cls-9" d="M17.55,4.85h0,0s0,0,0,0Z"/>
            <path class="cls-9" d="M16.62,5.93c.05-.33.29-.56.54-.53.25.04.41.33.36.66-.05.33-.29.56-.53.53-.25-.04-.41-.33-.36-.66Z"/>
          </g>
          <g>
            <g>
              <path class="cls-10" d="M9.61,9.19c-1.18-.04-2.26-1.21-2.56-2.78-.24-1.23.04-2.43.74-3.13.01-.01.04-.04.04-.04.27-.26.59-.43.93-.49.11-.02.23-.03.34-.03,1.05,0,2.05.9,2.49,2.25.06.17.1.35.14.53.14.73.1,1.47-.11,2.1,0,.02-.02.04-.03.06-.32.84-.88,1.37-1.57,1.5-.1.02-.21.03-.33.03,0,0-.07,0-.07,0Z"/>
              <path class="cls-11" d="M9.1,2.95c.94,0,1.86.85,2.27,2.09.06.16.1.33.13.51.14.72.09,1.41-.11,1.98t0,0c-.26.74-.76,1.28-1.42,1.4-.1.02-.2.03-.29.03-.02,0-.04,0-.06,0h0c-1.05-.04-2.05-1.11-2.34-2.59-.23-1.19.06-2.32.69-2.94h0s0,0,0,0c.24-.23.52-.39.83-.45.1-.02.2-.03.3-.03M9.1,2.49h0c-.13,0-.26.01-.39.04-.38.07-.73.26-1.04.54-.02.02-.04.04-.06.06-.75.75-1.05,2.03-.8,3.33.33,1.67,1.5,2.92,2.78,2.96h.08c.14,0,.27-.01.39-.04.78-.15,1.41-.76,1.74-1.66,0-.02.02-.03.02-.05.23-.67.27-1.46.12-2.22-.05-.23-.09-.4-.15-.57-.47-1.43-1.56-2.4-2.71-2.4h0Z"/>
            </g>
            <path class="cls-3" d="M11.39,7.53c-.26.74-.76,1.28-1.42,1.4-1.17.23-2.38-.92-2.7-2.56-.32-1.65.36-3.16,1.53-3.39,1.04-.21,2.12.69,2.57,2.06,0,0-1.12-1.34-2.11-.71-.99.62-1.32,2.27-.51,3.45.81,1.18,2.21.72,2.64-.25Z"/>
            <path class="cls-9" d="M7.96,3.43h0,0s0,0,0,0Z"/>
            <path class="cls-9" d="M8.54,4.73c.05-.33-.11-.62-.36-.66-.25-.04-.49.2-.54.53-.05.33.11.62.36.66.25.04.49-.2.53-.53Z"/>
          </g>
          <g>
            <g>
              <path class="cls-10" d="M4.64,12.48c-.81,0-1.66-.54-2.22-1.4-.56-.86-.7-1.85-.38-2.58,0-.05,0-.06.04-.1,0,0,.01-.01.02-.01.12-.24.29-.42.51-.56.24-.16.52-.24.83-.24.68,0,1.41.39,1.95,1.05.09.11.18.23.26.36.33.5.52,1.07.55,1.61.03.73-.23,1.33-.73,1.65-.08.05-.18.1-.29.15-.17.06-.35.09-.54.09Z"/>
              <path class="cls-11" d="M3.44,7.76c.61,0,1.29.36,1.81.98.09.11.17.22.25.34.32.5.49,1.03.52,1.52t0,0c.03.63-.19,1.18-.64,1.48-.08.05-.17.09-.26.13h0c-.15.05-.31.08-.47.08-.71,0-1.52-.49-2.06-1.32-.53-.82-.65-1.76-.36-2.41h0s0,0,0,0c.11-.24.27-.45.49-.59.22-.14.47-.21.73-.21M3.44,7.39h0c-.34,0-.67.09-.94.27-.27.17-.47.41-.61.72-.01.02-.02.04-.03.07-.33.79-.18,1.83.4,2.73.6.92,1.5,1.49,2.37,1.49.21,0,.41-.03.6-.1.14-.05.25-.11.34-.17.54-.35.83-.99.81-1.77,0-.01,0-.03,0-.04-.03-.57-.23-1.17-.58-1.7-.09-.13-.18-.26-.28-.38-.58-.69-1.36-1.11-2.09-1.11h0Z"/>
            </g>
            <path class="cls-3" d="M6.01,10.61c.03.63-.19,1.18-.64,1.48-.81.52-2.06.03-2.79-1.11-.74-1.14-.68-2.48.13-3,.72-.47,1.8-.12,2.54.77,0,0-1.24-.67-1.8.1-.55.77-.3,2.1.65,2.74.96.64,1.87-.12,1.9-.98Z"/>
            <path class="cls-9" d="M2.21,8.56h0,0s0,0,0,0Z"/>
            <path class="cls-9" d="M3.04,9.36c-.06-.26-.27-.43-.47-.39-.2.05-.3.3-.24.56.06.26.27.43.47.39.2-.05.3-.3.24-.56Z"/>
          </g>
          <g>
            <g>
              <path class="cls-10" d="M18.99,14.6c-.41,0-.78-.11-1.06-.32-.1-.08-.18-.15-.25-.23-.37-.44-.46-1.08-.23-1.76,0,0,0-.02,0-.03.18-.51.53-1,.99-1.38.12-.1.23-.19.36-.27.51-.33,1.07-.52,1.6-.52s1,.2,1.3.55c.18.21.3.48.34.78,0,0,0,.03,0,.04.09.79-.34,1.69-1.11,2.35-.59.5-1.3.78-1.95.78Z"/>
              <path class="cls-11" d="M20.4,10.28c.47,0,.89.16,1.16.48.17.2.27.44.3.71h0s0,0,0,0c.08.71-.29,1.57-1.05,2.2-.58.49-1.25.74-1.83.74-.36,0-.69-.09-.95-.29h0c-.07-.06-.15-.12-.21-.2-.35-.41-.4-1-.19-1.6t0,0c.16-.46.48-.92.93-1.3.11-.09.22-.18.34-.25.49-.32,1.02-.49,1.5-.49M20.4,9.9c-.56,0-1.16.19-1.7.55-.13.08-.25.18-.37.28-.48.41-.85.93-1.04,1.46,0,.01,0,.03-.01.04-.25.74-.15,1.44.26,1.93.07.08.16.17.27.25.01.01.03.02.04.03.28.21.69.34,1.14.34.7,0,1.45-.3,2.07-.83.82-.69,1.27-1.65,1.18-2.5,0-.02,0-.05,0-.07-.05-.33-.17-.63-.38-.87-.34-.4-.85-.62-1.45-.62h0Z"/>
            </g>
            <path class="cls-3" d="M17.64,12.33c-.21.6-.16,1.19.19,1.6.62.73,1.96.62,3-.25,1.03-.88,1.36-2.18.75-2.91-.55-.66-1.69-.64-2.66,0,0,0,1.38-.28,1.69.61.31.89-.32,2.1-1.42,2.43-1.11.34-1.76-.66-1.54-1.49Z"/>
            <path class="cls-9" d="M21.87,11.47h0,0s0,0,0,0Z"/>
            <path class="cls-9" d="M20.85,12c.13-.23.39-.34.56-.24.17.1.21.37.07.6-.13.23-.39.34-.56.24-.17-.1-.21-.37-.07-.6Z"/>
          </g>
          <g>
            <g>
              <path class="cls-10" d="M15.23,20.01c-.88-.07-1.69-.57-2.3-.99-.69-.47-1.56-.74-2.44-.74-.44,0-.86.06-1.25.19-.51.17-1.17.35-1.83.35-.34,0-.66-.05-.94-.15-.71-.25-1.23-.82-1.53-1.69-.47-1.3-.06-2.36,1.17-3.06,0,0,0,0,0,0,.39-.22.76-.36,1.02-.47,0,0,.09-.04.09-.04.02-.02.05-.04.09-.06.14-.13.28-.39.43-.7.48-.94,1.21-2.36,3.42-2.36.36,0,.75.04,1.17.11,2.65.38,3.22,2.2,3.6,3.41.09.28.16.53.26.72,0,0,0,.02.01.03.05.09.1.16.15.2.45.35,1.05.82,1.41,1.46,0,.01.01.02.02.04.46.83.36,1.7-.28,2.58-.57.78-1.26,1.17-2.06,1.17-.06,0-.19,0-.2,0Z"/>
              <path class="cls-11" d="M11.16,10.53c.34,0,.71.03,1.12.11,3.15.45,3.19,3.02,3.69,4.01h0c.07.13.13.23.22.3.38.29,1,.76,1.36,1.39h0c.36.63.44,1.42-.25,2.36-.58.8-1.23,1.08-1.87,1.08-.07,0-.13,0-.19,0,0,0,0,0,0,0h0c-.81-.07-1.58-.54-2.17-.95-.74-.51-1.66-.78-2.57-.78-.45,0-.9.07-1.32.2-.52.17-1.15.34-1.76.34-.29,0-.58-.04-.86-.14h0c-.57-.21-1.07-.66-1.39-1.55-.54-1.52.25-2.33,1.09-2.8t0,0c.38-.21.77-.36,1.05-.47.05-.02.11-.05.15-.1h0c.66-.59.9-3,3.7-3M11.16,10.07c-2.35,0-3.15,1.56-3.62,2.49-.13.24-.25.5-.36.61-.01,0-.02.02-.03.03l-.1.05c-.27.11-.65.25-1.02.46-.02,0-.03.02-.05.03,0,0,0,0,0,0-1.67.96-1.61,2.34-1.25,3.33.33.93.89,1.55,1.67,1.83.01,0,.02,0,.03.01.3.1.63.15.99.15.69,0,1.38-.2,1.91-.37.37-.12.77-.18,1.18-.18.84,0,1.66.25,2.31.7.63.44,1.48.95,2.39,1.03.01,0,.03,0,.04,0,0,0,.02,0,.03,0,.06,0,.11,0,.17,0,.87,0,1.63-.43,2.24-1.27.69-.94.8-1.91.3-2.82,0-.02-.01-.03-.02-.05-.39-.68-1.01-1.17-1.42-1.49l-.06-.04s-.03-.03-.07-.11c0-.01,0-.02-.02-.03-.08-.16-.16-.41-.25-.69-.37-1.19-.99-3.17-3.79-3.57-.41-.08-.81-.12-1.19-.12h0Z"/>
            </g>
            <path class="cls-3" d="M5.15,16.91c.79,2.21,2.75,1.76,4.02,1.34,1.28-.41,2.79-.18,3.9.58,1.1.77,2.85,1.76,4.24-.12.7-.94.61-1.73.25-2.36,0,.11.04,1.94-1.73,2.17-1.82.24-2.39-1.72-4.4-2.04-2.01-.32-2.91,1.03-4.08.96-1.17-.08-2.72-1.79-1.1-3.33-.84.47-1.63,1.29-1.09,2.8Z"/>
            <path class="cls-5" d="M7.46,13.53c4.83,3.25,8.52,1.12,8.52,1.12h0c-.5-.99-.54-3.57-3.69-4.01-3.88-.71-4.08,2.23-4.83,2.89Z"/>
            <path class="cls-6" d="M10.71,12.54c-.05.35.28.69.74.76.46.07.88-.16.93-.51.05-.35-.28-.69-.74-.76-.46-.07-.88.16-.93.51Z"/>
          </g>
        </g>
      </g>
    </g>
  </g>
</svg>