<?xml version="1.0" encoding="UTF-8"?>
<svg xmlns="http://www.w3.org/2000/svg" xmlns:xlink="http://www.w3.org/1999/xlink" viewBox="0 0 44.43 47.51">
  <defs>
    <style>
      .cls-1 {
        fill: url(#linear-gradient-2);
      }

      .cls-2, .cls-3 {
        fill: #fff;
      }

      .cls-2, .cls-4 {
        mix-blend-mode: overlay;
      }

      .cls-5 {
        fill: #171717;
      }

      .cls-6 {
        fill: url(#linear-gradient);
      }

      .cls-7 {
        isolation: isolate;
      }
    </style>
    <linearGradient id="linear-gradient" x1="1662.17" y1="184.44" x2="1659.36" y2="156.99" gradientTransform="translate(1675.4 228.23) rotate(-167.53) scale(1 -1)" gradientUnits="userSpaceOnUse">
      <stop offset=".31" stop-color="#949494"/>
      <stop offset=".81" stop-color="#171718"/>
    </linearGradient>
    <linearGradient id="linear-gradient-2" x1="1650.97" y1="164.62" x2="1665.35" y2="164.62" gradientTransform="translate(1675.4 228.23) rotate(-167.53) scale(1 -1)" gradientUnits="userSpaceOnUse">
      <stop offset="0" stop-color="#ffe0ff"/>
      <stop offset=".54" stop-color="#fdf6ff"/>
      <stop offset="1" stop-color="#f0d3f0"/>
    </linearGradient>
  </defs>
  <g class="cls-7">
    <g id="Layer_2" data-name="Layer 2">
      <g id="Layer_1-2" data-name="Layer 1">
        <g>
          <g>
            <g>
              <path class="cls-6" d="M6.29,46.97c-.21,0-.4-.12-.49-.32L.6,35.48c-.07-.15-.07-.32,0-.46.07-.15.2-.25.35-.3.09-.02,8.99-2.42,18.25-8.6,1.93-1.28,3.78-2.68,5.51-4.14,4.23-3.6,7.67-7.62,10.22-11.96C39.88,1.62,41.62.55,42.57.55c.34,0,.65.15.87.43.97,1.22.1,5.29-.19,6.5-.08.2-5.06,12.21-15.08,23.38-.01.01-.03.04-.06.06-5.42,6.06-11.35,10.8-17.63,14.11-1.26.68-2.6,1.32-3.98,1.9-.07.03-.14.04-.21.04Z"/>
              <path class="cls-5" d="M42.57,1.09c1.64,0,.15,6.26.15,6.26,0,0-4.89,11.91-14.96,23.14-.02.02-.04.05-.06.06-4.69,5.24-10.51,10.32-17.48,13.99-1.27.69-2.59,1.31-3.94,1.88l-5.2-11.17s8.96-2.36,18.41-8.67c1.85-1.23,3.73-2.63,5.56-4.18,3.85-3.27,7.5-7.27,10.34-12.1,4.13-7.01,6.19-9.2,7.16-9.2M42.57,0c-1.14,0-2.81.75-8.1,9.74-2.52,4.29-5.92,8.27-10.11,11.82-1.71,1.45-3.55,2.83-5.46,4.1C9.7,31.81.9,34.17.81,34.19c-.31.08-.57.3-.71.59-.14.29-.14.63,0,.92l5.2,11.17c.18.4.58.63.99.63.14,0,.28-.03.42-.09,1.4-.59,2.76-1.23,4.03-1.92,6.31-3.32,12.27-8.09,17.72-14.17.06-.06.11-.11.13-.14,10.05-11.21,14.92-22.93,15.13-23.42.02-.05.04-.11.05-.16.48-2.03,1.14-5.64.09-6.97-.32-.41-.78-.64-1.3-.64h0Z"/>
            </g>
            <path class="cls-4" d="M10.23,44.54C32.2,32.99,42.72,7.35,42.72,7.35c0,0,3.78-15.88-7.31,2.94-3.54,6.02-8.34,10.76-13.22,14.38-.9.67-1.79,1.3-2.69,1.9-1.43,7.68-5.95,14.12-9.28,17.97Z"/>
            <path class="cls-4" d="M10.23,44.54c8.72-6.47,11.54-17.91,11.96-19.87-.9.67-1.79,1.3-2.69,1.9-1.43,7.68-5.95,14.12-9.28,17.97Z"/>
            <path class="cls-2" d="M1.09,35.25l5.2,11.17c1.35-.57,2.67-1.19,3.94-1.88,6.97-3.67,12.78-8.75,17.48-13.99-4.22,4.02-12.2,10.97-20.06,14.24l-4.49-9.39s13.1-4.23,21.91-13c-1.83,1.55-3.71,2.95-5.56,4.18C10.05,32.89,1.09,35.25,1.09,35.25Z"/>
            <ellipse class="cls-3" cx="9.21" cy="33.73" rx="3.13" ry="1.15" transform="translate(-15.07 8.57) rotate(-28.71)"/>
            <ellipse class="cls-3" cx="7.34" cy="36.6" rx="1.3" ry=".65" transform="translate(-16.68 8.03) rotate(-28.71)"/>
          </g>
          <g>
            <g>
              <path class="cls-1" d="M22.26,37.85c-.43,0-.84-.17-1.15-.46l-6.82-6.67c-.32-.31-.5-.72-.5-1.16,0-.43.16-.85.47-1.17l3.95-4.05c.32-.32.73-.49,1.18-.49s.84.17,1.15.46l6.82,6.67c.31.31.48.71.49,1.15,0,.44-.16.85-.46,1.16l-3.95,4.06c-.32.32-.73.49-1.18.49h0ZM19.83,26.79c-.09,0-.17.03-.23.09l-2.78,2.83c-.06.06-.09.14-.08.22,0,.08.04.16.09.22l2.1,2.04,2.67,2.62c.06.06.14.09.23.09.06,0,.14-.02.21-.09l2.78-2.83c.06-.06.09-.14.08-.22s-.04-.16-.09-.22l-4.77-4.67c-.06-.05-.13-.08-.22-.08Z"/>
              <path class="cls-5" d="M19.39,24.34c.29,0,.58.11.81.33l3.21,3.14,3.61,3.53c.45.44.47,1.17.02,1.61l-3.96,4.06c-.23.23-.52.34-.82.34s-.58-.11-.81-.33l-4.03-3.95-2.79-2.73c-.46-.45-.47-1.17-.02-1.63l3.95-4.05c.23-.23.52-.34.82-.34M21.84,35.39c.2,0,.41-.08.56-.24l2.78-2.83c.31-.32.3-.83-.02-1.14l-2.41-2.36-2.35-2.31c-.16-.15-.36-.23-.56-.22-.21,0-.42.08-.58.25l-2.78,2.83c-.31.32-.3.83.02,1.14l2.1,2.04,2.67,2.61c.16.15.37.23.57.23M19.39,23.36c-.58,0-1.12.23-1.52.64l-3.96,4.05c-.84.87-.82,2.19.04,3.02l2.78,2.72,4.03,3.95c.41.39.94.61,1.49.61s1.12-.23,1.52-.64l3.96-4.07c.81-.82.8-2.17-.04-3l-3.62-3.54-3.21-3.14c-.41-.39-.94-.61-1.49-.61h0ZM17.3,29.93l2.53-2.58,2.22,2.18,2.29,2.24-2.52,2.57-2.55-2.49-1.98-1.92h0Z"/>
            </g>
            <path class="cls-4" d="M17.42,33.09l4.03,3.95c.46.45,1.19.43,1.63-.02l3.96-4.06c.44-.45.42-1.17-.02-1.61l-3.61-3.53c-.19.32-.42.66-.66,1.02l2.41,2.36c.32.31.33.82.02,1.14l-2.78,2.83c-.31.32-.82.31-1.13,0l-2.67-2.61c-.37.21-.76.38-1.17.54Z"/>
            <g class="cls-4">
              <path class="cls-3" d="M19.39,24.61c.23,0,.45.09.62.25l3.21,3.14,3.61,3.53c.34.34.35.89.02,1.23l-3.96,4.06c-.17.17-.39.26-.63.26s-.45-.09-.62-.25l-4.03-3.95-2.79-2.73c-.35-.34-.36-.89-.01-1.25l3.95-4.05c.17-.17.39-.26.63-.26M21.84,35.66c.29,0,.56-.11.75-.32l2.78-2.83c.41-.43.4-1.11-.03-1.52l-2.41-2.36-2.36-2.31c-.2-.19-.47-.3-.75-.3-.3,0-.57.12-.77.33l-2.78,2.83c-.2.21-.31.48-.3.77s.12.56.33.75l2.1,2.04,2.67,2.62c.21.2.48.31.76.31M19.39,24.34c-.3,0-.6.12-.82.34l-3.95,4.05c-.45.46-.45,1.18.02,1.63l2.79,2.73,4.03,3.95c.23.22.52.33.81.33s.6-.12.82-.34l3.96-4.06c.44-.45.42-1.17-.02-1.61l-3.61-3.53-3.21-3.14c-.23-.22-.52-.33-.81-.33h0ZM21.84,35.39c-.21,0-.41-.08-.57-.23l-2.67-2.61-2.1-2.04c-.32-.31-.33-.82-.02-1.14l2.78-2.83c.16-.16.37-.25.58-.25.2,0,.4.07.56.22l2.35,2.31,2.41,2.36c.32.31.33.82.02,1.14l-2.78,2.83c-.15.16-.36.24-.56.24h0Z"/>
            </g>
          </g>
        </g>
      </g>
    </g>
  </g>
</svg>